<svg xmlns="http://www.w3.org/2000/svg" viewBox="0 0 135.1 135.1"><defs><style>.cls-1{stroke:#fff;stroke-miterlimit:10;}</style></defs><g id="Layer_2" data-name="Layer 2"><g id="Layer_1-2" data-name="Layer 1"><path id="Group_8230" data-name="Group 8230" class="cls-1" d="M67.55.5A67.05,67.05,0,1,1,.5,67.55,67.05,67.05,0,0,1,67.55.5ZM34.81,90.76v7.38a2,2,0,1,0,3.94,0V87.7c3.25.89,9.65,1.19,11.52-8.76,0,0-7.58-3-11.52,2.75v-8C42,74.61,48.4,74.9,50.27,65c0,0-7.58-3-11.52,2.74V60.53c3.25.88,9.65,1.18,11.52-8.77,0,0-7.58-3-11.52,2.75V51.65c1-2.56,2.85-10.53-8.37-12.6,0,0-3.55,8.86,4.43,12.4V58c-3.94-5.71-11.42-2.75-11.42-2.75,1.87,9.85,8.17,9.55,11.42,8.77v7.87c-3.94-5.71-11.42-2.74-11.42-2.74,1.87,9.85,8.17,9.55,11.42,8.76V85c-3.94-5.71-11.42-2.74-11.42-2.74C25.26,91.94,31.56,91.64,34.81,90.76Zm71.88-14.87L32.24,103.06a2,2,0,0,0,.69,3.84,1.63,1.63,0,0,0,.69-.09L67.19,94.5,60.49,106c-.79,1.38-.2,2.56,1.48,2.56H78.42c1.68,0,2.27-1.18,1.48-2.56L72.23,92.63l35.94-13.19a2,2,0,0,0,1.18-2.56A2.16,2.16,0,0,0,106.69,75.89ZM83.75,74.51c2.17,0,3.84-2.07,7.19-2.36,3.35.3,5,2.36,7.19,2.36,9.35-.2,16.64-19.1,11.72-28.85-3.55-7-12.12-3.66-16.74-1.18A20.05,20.05,0,0,1,103,31.18a2,2,0,1,0-1.78-3.54,24.27,24.27,0,0,0-7.08,5.7c-2-8.37-11.33-6.7-11.33-6.7-.19,9.14,4.83,10.93,8.37,11.12a20.3,20.3,0,0,0-2.06,6.8c-4.53-2.47-13.39-6.1-17,1C67.21,55.31,74.39,74.31,83.75,74.51Z"/></g></g></svg>